<?xml version="1.0" encoding="UTF-8" standalone="no"?>
<!-- Created with Inkscape (http://www.inkscape.org/) -->

<svg
   width="512"
   height="512"
   viewBox="0 0 512 512"
   version="1.1"
   id="svg1"
   inkscape:version="1.4 (e7c3feb100, 2024-10-09)"
   sodipodi:docname="logo.svg"
   inkscape:export-filename="logo.png"
   inkscape:export-xdpi="96"
   inkscape:export-ydpi="96"
   xmlns:inkscape="http://www.inkscape.org/namespaces/inkscape"
   xmlns:sodipodi="http://sodipodi.sourceforge.net/DTD/sodipodi-0.dtd"
   xmlns="http://www.w3.org/2000/svg"
   xmlns:svg="http://www.w3.org/2000/svg">
  <sodipodi:namedview
     id="namedview1"
     pagecolor="#ffffff"
     bordercolor="#999999"
     borderopacity="1"
     inkscape:showpageshadow="2"
     inkscape:pageopacity="0"
     inkscape:pagecheckerboard="0"
     inkscape:deskcolor="#d1d1d1"
     inkscape:document-units="px"
     inkscape:zoom="1.5625"
     inkscape:cx="247.04"
     inkscape:cy="254.4"
     inkscape:window-width="1920"
     inkscape:window-height="1033"
     inkscape:window-x="0"
     inkscape:window-y="0"
     inkscape:window-maximized="1"
     inkscape:current-layer="g11" />
  <defs
     id="defs1" />
  <g
     inkscape:label="V1"
     inkscape:groupmode="layer"
     id="layer1-1"
     transform="translate(-8.4229705,-14.044923)"
     style="display:none">
    <path
       id="path3-8"
       style="fill:#1a1a1a;stroke-width:0.810878"
       d="m 211.39234,92.435547 c -98.09095,0 -177.609378,79.518423 -177.609371,177.609373 -1.1e-5,98.09095 79.518421,177.60939 177.609371,177.60938 H 465.8025 V 92.435547 Z"
       sodipodi:nodetypes="sssccs" />
    <path
       id="rect3-7"
       style="fill:#ffffff;stroke-width:1.9427"
       d="m 346.88586,173.68164 c -4.55641,-0.003 -12.24761,5.66055 -14.37695,8.9336 l -7.10352,10.91992 h -65.91015 c -27.65566,0 -49.91993,22.26424 -49.91993,49.91992 v 48.64062 c 0,27.65568 22.26427,49.91993 49.91993,49.91993 h 64.64062 l 10.05664,15.45703 c 2.52367,3.87917 12.86046,11.11703 16.53125,8.29883 l 0.26758,-0.20704 c 3.67078,-2.8182 -7.71312,-16.11719 -9.27734,-20.47265 l -1.10547,-3.07617 h 546.08593 c 13.82784,0 26.30706,-5.56683 35.33008,-14.58985 9.02303,-9.02302 14.58985,-21.50224 14.58985,-35.33008 v -48.64062 c 0,-15.55632 -7.04477,-29.40728 -18.13086,-38.54883 -8.62252,-7.1101 -19.68971,-11.37109 -31.78907,-11.37109 H 471.78235 340.72766 c 2.8848,-5.3097 11.90797,-16.45681 8.58008,-19.01172 l -0.26758,-0.20508 c -0.57356,-0.44034 -1.31052,-0.63618 -2.1543,-0.63672 z m -27.95703,31.75586 36.48242,32 v 60.67578 c 0,0 -36.49632,31.64391 -36.48242,32 0,0 -50.45898,6.4e-4 -50.45898,-62.33789 0,-62.33853 50.45898,-62.33789 50.45898,-62.33789 z m 17.35156,0 h 128.54492 l -0.42382,32.36914 h -91.41407 z m 37.13086,92.67578 h 91.41406 v 32 H 336.61828 Z" />
    <path
       id="rect8"
       style="fill:#f9f9f9"
       d="m 348.26295,226.49518 h 150.72001 c 11.5232,0 20.8,9.2768 20.8,20.8 v 40.96 c 0,11.5232 -9.2768,20.8 -20.8,20.8 H 348.26295 c -11.5232,0 15.2,-9.2768 15.2,-20.8 v -40.96 c 0,-11.5232 -26.7232,-20.8 -15.2,-20.8 z"
       sodipodi:nodetypes="sssssssss" />
  </g>
  <g
     inkscape:label="Layer 1"
     inkscape:groupmode="layer"
     id="layer1"
     style="display:none">
    <path
       id="path3"
       style="display:inline;fill:#1a1a1a;stroke-width:0.810878"
       d="M 201.15234,92.435547 A 177.60936,177.60936 0 0 0 23.542969,270.04492 177.60936,177.60936 0 0 0 201.15234,447.6543 H 487.5625 V 92.435547 Z" />
    <path
       id="rect3"
       style="fill:#ffffff;stroke-width:1.9427"
       d="m 369.28622,173.68216 c -4.55641,-0.003 -12.24761,5.66055 -14.37695,8.9336 l -7.10352,10.91992 h -65.91016 c -27.65566,0 -49.91992,22.26424 -49.91992,49.91992 v 48.64062 c 0,27.65568 22.26426,49.91993 49.91992,49.91993 h 64.64063 l 10.05664,15.45703 c 2.52367,3.87917 12.86046,11.11703 16.53125,8.29883 l 0.26758,-0.20704 c 3.67078,-2.8182 -7.71312,-16.11719 -9.27734,-20.47265 l -1.10547,-3.07617 h 546.08593 c 27.65568,0 49.91993,-22.26425 49.91993,-49.91993 V 243.4556 c 0,-27.65568 -22.26425,-49.91992 -49.91993,-49.91992 H 363.12802 c 2.8848,-5.3097 11.90796,-16.45681 8.58007,-19.01172 l -0.26757,-0.20508 c -0.57356,-0.44034 -1.31052,-0.63618 -2.1543,-0.63672 z m -27.95703,31.75586 36.48242,32 v 60.67578 c 0,0 -36.49632,31.64391 -36.48242,32 0,0 -50.45899,6.4e-4 -50.45899,-62.33789 0,-62.33853 50.45899,-62.33789 50.45899,-62.33789 z m 17.35156,0 h 128.54492 l -0.42382,32.36914 h -91.41407 z m 37.13086,92.67578 h 91.41406 v 32 l -128.63281,0.3711 z" />
  </g>
  <g
     inkscape:label="V1 Final"
     inkscape:groupmode="layer"
     id="g11"
     transform="translate(-8.4229705,-14.044923)">
    <path
       id="path9"
       style="fill:#24bd4a;stroke-width:0.810878;fill-opacity:1"
       d="m 226.02258,92.435547 c -98.09095,0 -177.609383,79.518423 -177.609377,177.609373 -1.1e-5,98.09095 79.518427,177.60939 177.609377,177.60938 H 480.43274 V 342.01563 H 355.23938 l 1.10547,3.07617 c 1.56422,4.35546 12.94812,17.65445 9.27734,20.47265 l -0.26758,0.20704 c -3.67079,2.8182 -14.00758,-4.41966 -16.53125,-8.29883 L 338.76672,342.01563 H 274.1261 c -27.65566,0 -49.91993,-22.26425 -49.91993,-49.91993 v -48.64062 c 0,-27.65568 22.26427,-49.91992 49.91993,-49.91992 h 65.91015 l 7.10352,-10.91992 c 2.12934,-3.27305 9.82054,-8.9366 14.37695,-8.9336 0.84378,5.4e-4 1.58074,0.19638 2.1543,0.63672 l 0.26758,0.20508 c 3.32789,2.55491 -5.69528,13.70202 -8.58008,19.01172 H 480.43274 V 92.435547 Z M 333.55969,205.4375 c 0,0 -50.45898,-6.4e-4 -50.45898,62.33789 0,62.33853 50.45898,62.33789 50.45898,62.33789 -0.0139,-0.35609 36.48242,-32 36.48242,-32 V 237.4375 Z m 17.35156,0 23.88086,21.05859 h 104.38867 l 0.27539,-21.05859 z m 24.55078,103.61719 -24.21289,21.05859 h 128.20703 v -21.05859 z" />
  </g>
</svg>
